<?xml version="1.0" standalone="no"?>
<!DOCTYPE svg PUBLIC "-//W3C//DTD SVG 20010904//EN"
 "http://www.w3.org/TR/2001/REC-SVG-20010904/DTD/svg10.dtd">
<svg version="1.0" xmlns="http://www.w3.org/2000/svg"
 width="500.000000pt" height="500.000000pt" viewBox="0 0 500.000000 500.000000"
 preserveAspectRatio="xMidYMid meet">

<g transform="translate(0.000000,500.000000) scale(0.100000,-0.100000)"
fill="#000000" stroke="none">
<path d="M2137 2873 c-3 -10 -4 -31 -2 -48 1 -16 3 -54 4 -83 1 -44 4 -53 18
-50 11 2 22 26 34 78 27 111 26 120 -15 120 -25 0 -36 -5 -39 -17z"/>
<path d="M2057 2803 c-3 -4 4 -28 14 -53 l19 -45 -3 49 c-2 45 -17 70 -30 49z"/>
<path d="M2252 2762 c-6 -20 -14 -48 -17 -62 l-6 -25 21 25 c11 14 27 37 35
52 14 25 14 28 -3 37 -16 9 -21 5 -30 -27z"/>
<path d="M1975 2760 c-7 -12 62 -86 72 -77 7 8 -44 87 -57 87 -5 0 -12 -5 -15
-10z"/>
<path d="M2316 2699 c-44 -48 -41 -60 7 -30 49 30 60 46 43 60 -11 9 -21 3
-50 -30z"/>
<path d="M1155 2565 l0 -166 110 3 c95 3 110 5 113 20 3 16 1 16 -33 2 -22 -9
-58 -14 -88 -12 l-52 3 -3 69 -3 68 38 -4 c21 -3 46 -8 56 -12 14 -7 17 -3 17
18 0 23 -2 25 -19 16 -11 -5 -36 -10 -55 -10 l-36 0 0 80 0 80 61 0 c33 0 69
-5 80 -10 15 -8 19 -7 19 5 0 12 -17 15 -102 15 l-103 0 0 -165z"/>
<path d="M2995 2565 l0 -165 26 0 c25 0 26 2 22 43 -4 33 0 48 17 70 12 15 25
27 28 27 4 0 23 -31 42 -70 30 -60 39 -69 63 -70 15 0 27 2 27 5 0 3 -18 37
-40 76 -22 39 -40 75 -40 79 0 5 15 18 34 29 54 34 63 86 20 120 -22 18 -41
21 -113 21 l-86 0 0 -165z m139 145 c38 -14 50 -44 31 -80 -9 -16 -19 -30 -24
-30 -4 0 -29 -18 -55 -41 l-46 -41 0 101 0 101 34 0 c19 0 46 -4 60 -10z"/>
<path d="M3771 2568 c3 -90 6 -164 7 -165 1 -2 9 -3 17 -3 13 0 15 25 15 165
0 164 0 165 -22 165 l-23 0 6 -162z"/>
<path d="M2497 2664 c-9 -10 2 -24 19 -24 8 0 14 7 14 15 0 15 -21 21 -33 9z"/>
<path d="M1425 2510 c0 -107 1 -110 22 -110 21 0 22 5 25 87 3 85 4 88 31 101
47 22 57 4 57 -99 0 -86 1 -89 23 -89 21 0 22 3 19 84 l-3 85 30 15 c16 9 36
13 45 10 19 -7 30 -73 21 -140 -6 -52 -5 -54 17 -54 23 0 23 1 20 92 -2 51 -9
99 -14 106 -14 16 -68 15 -92 -3 -16 -12 -22 -13 -35 -1 -29 24 -49 25 -87 5
-47 -23 -44 -23 -44 1 0 12 -7 20 -17 20 -16 0 -18 -12 -18 -110z"/>
<path d="M1790 2455 c0 -158 1 -165 20 -165 19 0 20 7 20 120 0 129 9 162 47
179 32 15 70 -7 79 -45 10 -39 -3 -97 -27 -116 -27 -23 -35 -22 -59 2 -14 14
-20 16 -20 6 0 -18 53 -40 78 -32 10 4 30 18 43 32 34 36 34 112 0 148 -31 33
-85 35 -117 5 l-22 -20 -6 25 c-3 14 -13 26 -21 26 -13 0 -15 -26 -15 -165z"/>
<path d="M2123 2613 c-30 -6 -70 -49 -78 -83 -10 -45 18 -98 61 -116 44 -19
84 -11 117 22 30 30 37 61 23 104 -17 50 -71 83 -123 73z m56 -39 c57 -48 60
-136 6 -150 -73 -18 -148 103 -96 155 28 28 53 27 90 -5z"/>
<path d="M2305 2510 c0 -105 1 -110 21 -110 20 0 21 4 16 75 -6 89 3 105 59
105 28 0 39 4 39 15 0 19 -27 19 -60 0 -33 -19 -37 -19 -43 5 -3 11 -11 20
-19 20 -10 0 -13 -25 -13 -110z"/>
<path d="M2490 2510 c0 -107 1 -110 23 -110 21 0 22 3 22 110 0 107 -1 110
-22 110 -22 0 -23 -3 -23 -110z"/>
<path d="M2652 2608 c-36 -10 -72 -57 -72 -96 0 -64 69 -120 131 -107 42 9 79
58 79 105 0 70 -66 117 -138 98z m56 -24 c69 -48 68 -164 -1 -164 -71 0 -125
112 -77 160 24 24 48 25 78 4z"/>
<path d="M3578 2612 c-33 -2 -48 -8 -48 -17 0 -23 18 -27 42 -11 12 9 39 16
60 16 33 0 38 -3 38 -23 0 -34 -19 -47 -70 -47 -66 0 -96 -38 -74 -95 17 -44
103 -35 128 13 l13 25 7 -36 c5 -26 12 -37 24 -37 15 0 17 11 14 92 -2 51 -8
98 -13 104 -12 14 -57 20 -121 16z m75 -139 c-23 -46 -47 -62 -70 -47 -28 17
-28 59 -1 78 12 9 32 16 45 16 12 0 25 6 30 13 17 27 14 -24 -4 -60z"/>
<path d="M3307 2584 c-57 -57 -37 -147 38 -173 36 -12 45 -12 77 3 20 10 39
25 43 34 5 14 4 14 -12 0 -27 -23 -60 -30 -83 -18 -27 15 -12 36 33 45 104 22
83 135 -25 135 -35 0 -51 -6 -71 -26z m104 -13 c43 -43 38 -57 -31 -90 -52
-25 -67 -17 -76 41 -5 28 -2 40 15 57 29 29 57 26 92 -8z"/>
</g>
</svg>
